<svg width="148" height="26" viewBox="0 0 192 34" fill="none" xmlns="http://www.w3.org/2000/svg">
<g clip-path="url(#clip0_5777_3435)">
<path d="M9.38376 33.1027L0.046875 16.9996L9.38376 0.896484L18.7207 16.9996L9.38376 33.1027Z" fill="#FF7433"/>
<path d="M36.9322 16.9996L27.5953 0.896484H22.5215L31.8584 16.9996L22.5215 33.1027H27.5953L36.9322 16.9996Z" fill="#FF7433"/>
<path d="M26.9376 15.076L18.7136 0.896484H13.6362L21.8602 15.076H26.9376Z" fill="#FF7433"/>
<path d="M21.8602 18.9238L13.6362 33.1034H18.7136L26.9376 18.9238H21.8602Z" fill="#FF7433"/>
</g>
<path d="M135.906 7.39116V30.2407H140.092V4.97471L135.906 7.39116Z" fill="white"/>
<path d="M125.852 6.12829C125.358 7.09131 125.111 8.32594 125.111 9.8322V11.7212H122.852V15.3881H125.111V30.2407H129.296V15.3881H132.63V11.7212H129.296V9.86924C129.296 8.88153 129.519 8.16544 129.963 7.72097C130.432 7.25181 131.247 7.07896 132.408 7.20243V3.5726C130.704 3.39975 129.309 3.53556 128.222 3.98003C127.16 4.42449 126.37 5.14058 125.852 6.12829Z" fill="white"/>
<path fill-rule="evenodd" clip-rule="evenodd" d="M54.2373 4.31338C57.0276 4.31338 59.4351 4.84427 61.4599 5.90606C63.5094 6.96785 65.0898 8.48645 66.2009 10.4619C67.3368 12.4126 67.9047 14.7214 67.9047 17.3882C67.9047 20.0303 67.3368 22.3144 66.2009 24.2404C65.0898 26.1664 63.5094 27.648 61.4599 28.6851C59.4351 29.7222 57.0276 30.2407 54.2373 30.2407H44.9775V4.31338H54.2373ZM54.2373 26.5739C57.2004 26.5739 59.4722 25.7713 61.0525 24.1663C62.6575 22.5366 63.46 20.2772 63.46 17.3882C63.46 14.4744 62.6575 12.178 61.0525 10.4989C59.4722 8.8198 57.2004 7.98025 54.2373 7.98025H49.3852V26.5739H54.2373Z" fill="white"/>
<path fill-rule="evenodd" clip-rule="evenodd" d="M82.8488 30.2407L82.4784 27.9813C81.8858 28.7715 81.1821 29.3765 80.3672 29.7963C79.5524 30.216 78.4659 30.4259 77.1078 30.4259C75.8238 30.4259 74.7126 30.216 73.7743 29.7963C72.8359 29.3518 72.1075 28.7468 71.589 27.9813C71.0951 27.1912 70.8482 26.2775 70.8482 25.2405C70.8482 23.6848 71.4161 22.3884 72.552 21.3514C73.7125 20.2896 75.404 19.6352 77.6263 19.3883L82.4784 18.8697V17.4252C82.4784 16.8326 82.2192 16.3017 81.7006 15.8325C81.1821 15.3387 80.3549 15.0917 79.219 15.0917C78.2313 15.0917 77.367 15.3387 76.6263 15.8325C75.9102 16.3017 75.4287 17.0178 75.1817 17.9808L71.5519 16.6474C72.0211 15.0177 72.9471 13.746 74.3298 12.8324C75.7373 11.9187 77.4411 11.4619 79.4412 11.4619C81.8611 11.4619 83.676 12.0669 84.886 13.2768C86.0959 14.4868 86.7009 16.0301 86.7009 17.9067V30.2407H82.8488ZM82.4784 22.0921L78.0338 22.6477C77.0954 22.7712 76.3917 23.0428 75.9225 23.4626C75.4534 23.8577 75.2188 24.3639 75.2188 24.9812C75.2188 25.5491 75.441 26.043 75.8855 26.4627C76.3546 26.8578 76.9843 27.0554 77.7745 27.0554C78.7869 27.0554 79.6388 26.8702 80.3302 26.4998C81.0463 26.1294 81.5772 25.5985 81.9229 24.9071C82.2932 24.2157 82.4784 23.3638 82.4784 22.3514V22.0921Z" fill="white"/>
<path d="M92.5288 6.53572V11.7212H89.936V15.3881H92.5288V23.6107C92.5288 25.1417 92.7757 26.3763 93.2695 27.3146C93.7634 28.253 94.4177 28.9691 95.2326 29.4629C96.0475 29.9321 96.9611 30.2037 97.9735 30.2778C99.0106 30.3765 100.06 30.3148 101.122 30.0926V26.5368C100.43 26.6356 99.739 26.6726 99.0476 26.6479C98.3809 26.5986 97.8377 26.364 97.4179 25.9442C96.9981 25.4997 96.7882 24.7219 96.7882 23.6107V15.3881H101.122V11.7212H96.7882V6.53572H92.5288Z" fill="white"/>
<path fill-rule="evenodd" clip-rule="evenodd" d="M115.764 30.2407L115.394 27.9813C114.801 28.7715 114.098 29.3765 113.283 29.7963C112.468 30.216 111.381 30.4259 110.023 30.4259C108.739 30.4259 107.628 30.216 106.69 29.7963C105.752 29.3518 105.023 28.7468 104.505 27.9813C104.011 27.1912 103.764 26.2775 103.764 25.2405C103.764 23.6848 104.332 22.3884 105.468 21.3514C106.628 20.2896 108.32 19.6352 110.542 19.3883L115.394 18.8697V17.4252C115.394 16.8326 115.135 16.3017 114.616 15.8325C114.098 15.3387 113.27 15.0917 112.135 15.0917C111.147 15.0917 110.283 15.3387 109.542 15.8325C108.826 16.3017 108.344 17.0178 108.097 17.9808L104.467 16.6474C104.937 15.0177 105.863 13.746 107.245 12.8324C108.653 11.9187 110.357 11.4619 112.357 11.4619C114.777 11.4619 116.592 12.0669 117.802 13.2768C119.011 14.4868 119.616 16.0301 119.616 17.9067V30.2407H115.764ZM115.394 22.0921L110.949 22.6477C110.011 22.7712 109.307 23.0428 108.838 23.4626C108.369 23.8577 108.134 24.3639 108.134 24.9812C108.134 25.5491 108.357 26.043 108.801 26.4627C109.27 26.8578 109.9 27.0554 110.69 27.0554C111.702 27.0554 112.554 26.8702 113.246 26.4998C113.962 26.1294 114.493 25.5985 114.838 24.9071C115.209 24.2157 115.394 23.3638 115.394 22.3514V22.0921Z" fill="white"/>
<path fill-rule="evenodd" clip-rule="evenodd" d="M148.467 29.3518C149.874 30.1173 151.467 30.5 153.245 30.5C155.023 30.5 156.628 30.1173 158.06 29.3518C159.517 28.5616 160.665 27.4504 161.504 26.0183C162.369 24.5861 162.801 22.8946 162.801 20.9439C162.801 19.0179 162.381 17.3511 161.542 15.9436C160.702 14.5115 159.566 13.4126 158.134 12.6472C156.726 11.857 155.134 11.4619 153.356 11.4619C151.603 11.4619 150.01 11.857 148.578 12.6472C147.146 13.4126 146.022 14.5115 145.207 15.9436C144.392 17.3758 143.985 19.0673 143.985 21.018C143.985 22.944 144.38 24.6231 145.17 26.0553C145.96 27.4628 147.059 28.5616 148.467 29.3518ZM155.652 26.1294C154.887 26.5492 154.072 26.7591 153.208 26.7591C152.343 26.7591 151.553 26.5492 150.837 26.1294C150.121 25.7096 149.541 25.08 149.096 24.2404C148.677 23.3762 148.467 22.302 148.467 21.018C148.467 19.6846 148.689 18.5981 149.133 17.7586C149.578 16.8943 150.158 16.2523 150.874 15.8325C151.615 15.4128 152.418 15.2029 153.282 15.2029C154.171 15.2029 154.998 15.4128 155.763 15.8325C156.529 16.2523 157.146 16.8943 157.615 17.7586C158.085 18.5981 158.319 19.6599 158.319 20.9439C158.319 22.2773 158.072 23.3762 157.578 24.2404C157.084 25.08 156.442 25.7096 155.652 26.1294Z" fill="white"/>
<path d="M174.512 30.2407H170.4L164.696 11.7212H168.956L172.437 25.2775L176.03 11.7212H180.104L183.549 25.2405L186.257 14.6108L191.161 11.7796L185.512 30.2407H181.327L177.956 17.7215L174.512 30.2407Z" fill="white"/>
<defs>
<clipPath id="clip0_5777_3435">
<rect width="36.9778" height="32" fill="white" transform="translate(0 1)"/>
</clipPath>
</defs>
</svg>
